<?xml version="1.0" standalone="no"?>
<!DOCTYPE svg PUBLIC "-//W3C//DTD SVG 20010904//EN"
 "http://www.w3.org/TR/2001/REC-SVG-20010904/DTD/svg10.dtd">
<svg version="1.0" xmlns="http://www.w3.org/2000/svg"
 width="225.000000pt" height="225.000000pt" viewBox="0 0 225.000000 225.000000"
 preserveAspectRatio="xMidYMid meet">

<g transform="translate(0.000000,225.000000) scale(0.100000,-0.100000)"
fill="#000000" stroke="none">
<path d="M380 1253 l-45 -48 45 43 c25 23 53 42 63 42 17 0 24 -15 10 -22 -5
-2 -26 -24 -48 -48 -35 -39 -32 -38 18 10 31 30 57 58 57 62 0 4 -13 8 -28 8
-20 0 -40 -13 -72 -47z"/>
<path d="M490 1120 l0 -180 505 0 505 0 0 180 0 180 -505 0 -505 0 0 -180z
m187 70 c27 0 9 -35 -22 -40 l-30 -6 33 -17 c61 -33 32 -112 -40 -105 -26 2
-34 8 -36 26 -3 22 -1 23 27 17 38 -8 43 11 7 25 -34 13 -50 44 -36 71 13 22
48 40 68 33 8 -2 20 -4 29 -4z m552 -13 c7 -6 17 -20 21 -32 7 -17 9 -14 9 13
1 32 2 33 38 30 33 -3 39 -7 47 -35 5 -18 12 -33 16 -33 4 0 11 15 16 33 8 28
14 32 47 35 l38 3 -3 -83 c-3 -77 -5 -83 -25 -86 -21 -3 -23 1 -24 40 l-1 43
-15 -43 c-12 -35 -19 -43 -36 -40 -15 2 -25 15 -33 43 l-12 40 -1 -43 c-1 -39
-3 -43 -23 -40 -17 2 -25 12 -29 38 -4 19 -7 27 -8 18 -2 -29 -38 -58 -71 -58
-60 0 -98 71 -74 135 15 38 87 50 123 22z m-399 -59 c14 -40 26 -79 28 -85 2
-8 -7 -13 -23 -13 -18 0 -29 6 -32 20 -3 13 -14 20 -28 20 -15 0 -26 -8 -30
-20 -7 -22 -59 -30 -53 -7 2 6 14 45 28 85 23 69 25 72 55 72 30 0 32 -3 55
-72z m180 50 l0 -22 16 22 c10 15 25 22 46 22 l30 0 -26 -34 c-14 -19 -26 -37
-26 -41 0 -3 11 -23 25 -43 31 -46 31 -52 0 -52 -16 0 -31 10 -42 27 l-17 26
-6 -24 c-4 -15 -14 -25 -28 -27 -21 -3 -22 0 -22 62 0 59 -2 66 -20 66 -18 0
-20 -7 -20 -66 0 -62 -1 -65 -22 -62 -21 3 -23 9 -26 66 -2 45 -7 62 -17 62
-17 0 -28 17 -20 30 3 6 44 10 91 10 80 0 84 -1 84 -22z"/>
<path d="M1157 1143 c-20 -19 0 -83 25 -83 13 0 27 46 21 69 -5 20 -32 28 -46
14z"/>
<path d="M766 1115 c-3 -8 -1 -15 4 -15 6 0 10 7 10 15 0 8 -2 15 -4 15 -2 0
-6 -7 -10 -15z"/>
<path d="M244 1235 c-5 -13 -9 -13 -22 -3 -13 11 -14 10 -8 -8 4 -14 1 -26 -9
-34 -18 -15 -11 -30 15 -30 13 0 17 -5 14 -14 -3 -8 0 -17 7 -22 8 -5 10 -3 4
5 -4 8 5 25 25 46 l32 33 31 -35 31 -35 -37 -34 c-22 -20 -31 -34 -22 -34 8 0
15 -6 15 -14 0 -23 20 -29 39 -12 14 13 20 13 32 3 12 -10 12 -10 2 2 -10 12
-10 18 3 32 17 18 12 39 -9 39 -9 0 -9 -2 0 -8 8 -5 3 -17 -16 -40 -16 -17
-31 -32 -35 -32 -14 0 -4 50 12 62 34 24 32 44 -8 83 l-39 38 -24 -27 c-15
-16 -35 -26 -53 -26 l-28 0 34 35 c18 19 37 32 42 29 4 -3 8 0 8 5 0 17 -30
13 -36 -4z"/>
<path d="M295 1140 c10 -11 20 -20 23 -20 3 0 -3 9 -13 20 -10 11 -20 20 -23
20 -3 0 3 -9 13 -20z"/>
<path d="M275 1120 c-3 -5 -14 -10 -23 -10 -10 0 -44 -27 -77 -60 -33 -33 -54
-60 -48 -60 7 0 33 25 59 55 35 40 55 55 73 55 24 0 22 -4 -29 -56 -30 -31
-50 -55 -45 -53 18 7 118 119 106 119 -7 0 -9 5 -6 10 3 6 4 10 1 10 -3 0 -8
-4 -11 -10z"/>
</g>
</svg>
