<?xml version="1.0" encoding="UTF-8"?>
<!DOCTYPE svg PUBLIC "-//W3C//DTD SVG 1.1//EN" "http://www.w3.org/Graphics/SVG/1.1/DTD/svg11.dtd">
<svg xmlns="http://www.w3.org/2000/svg" version="1.1" width="225px" height="225px" style="shape-rendering:geometricPrecision; text-rendering:geometricPrecision; image-rendering:optimizeQuality; fill-rule:evenodd; clip-rule:evenodd" xmlns:xlink="http://www.w3.org/1999/xlink">
<g><path style="opacity:0.004" fill="#fefffe" d="M 53.5,-0.5 C 53.8333,-0.5 54.1667,-0.5 54.5,-0.5C 54.3147,0.170143 53.9813,0.170143 53.5,-0.5 Z"/></g>
<g><path style="opacity:0.004" fill="#fefffe" d="M 119.5,2.5 C 120.833,3.16667 120.833,3.16667 119.5,2.5 Z"/></g>
<g><path style="opacity:0.004" fill="#fefffe" d="M 110.5,3.5 C 111.833,4.16667 111.833,4.16667 110.5,3.5 Z"/></g>
<g><path style="opacity:0.004" fill="#fefffe" d="M 17.5,5.5 C 18.8333,6.16667 18.8333,6.16667 17.5,5.5 Z"/></g>
<g><path style="opacity:0.004" fill="#fefffe" d="M 92.5,5.5 C 93.8333,6.16667 93.8333,6.16667 92.5,5.5 Z"/></g>
<g><path style="opacity:0.004" fill="#fefffe" d="M 107.5,10.5 C 108.833,11.1667 108.833,11.1667 107.5,10.5 Z"/></g>
<g><path style="opacity:0.004" fill="#fefffe" d="M 113.5,10.5 C 114.833,11.1667 114.833,11.1667 113.5,10.5 Z"/></g>
<g><path style="opacity:0.004" fill="#fefffe" d="M 26.5,11.5 C 27.8333,12.1667 27.8333,12.1667 26.5,11.5 Z"/></g>
<g><path style="opacity:0.004" fill="#fefffe" d="M 194.5,18.5 C 195.833,19.1667 195.833,19.1667 194.5,18.5 Z"/></g>
<g><path style="opacity:0.004" fill="#fefffe" d="M 35.5,21.5 C 36.8333,22.1667 36.8333,22.1667 35.5,21.5 Z"/></g>
<g><path style="opacity:0.004" fill="#fefffe" d="M 104.5,22.5 C 105.833,23.1667 105.833,23.1667 104.5,22.5 Z"/></g>
<g><path style="opacity:0.004" fill="#fefffe" d="M 146.5,24.5 C 147.833,25.1667 147.833,25.1667 146.5,24.5 Z"/></g>
<g><path style="opacity:0.004" fill="#fefffe" d="M 161.5,24.5 C 162.833,25.1667 162.833,25.1667 161.5,24.5 Z"/></g>
<g><path style="opacity:0.004" fill="#fefffe" d="M 68.5,47.5 C 69.8333,48.1667 69.8333,48.1667 68.5,47.5 Z"/></g>
<g><path style="opacity:0.004" fill="#fefffe" d="M 200.5,50.5 C 201.833,51.1667 201.833,51.1667 200.5,50.5 Z"/></g>
<g><path style="opacity:0.004" fill="#fefffe" d="M 215.5,50.5 C 216.833,51.1667 216.833,51.1667 215.5,50.5 Z"/></g>
<g><path style="opacity:0.004" fill="#fefffe" d="M 86.5,52.5 C 87.8333,53.1667 87.8333,53.1667 86.5,52.5 Z"/></g>
<g><path style="opacity:0.004" fill="#fefffe" d="M 104.5,53.5 C 105.833,54.1667 105.833,54.1667 104.5,53.5 Z"/></g>
<g><path style="opacity:0.004" fill="#fefffe" d="M 209.5,55.5 C 210.833,56.1667 210.833,56.1667 209.5,55.5 Z"/></g>
<g><path style="opacity:0.004" fill="#fefffe" d="M 35.5,61.5 C 36.8333,62.1667 36.8333,62.1667 35.5,61.5 Z"/></g>
<g><path style="opacity:0.004" fill="#fefffe" d="M 89.5,62.5 C 90.8333,63.1667 90.8333,63.1667 89.5,62.5 Z"/></g>
<g><path style="opacity:0.004" fill="#fefffe" d="M 29.5,63.5 C 30.8333,64.1667 30.8333,64.1667 29.5,63.5 Z"/></g>
<g><path style="opacity:0.004" fill="#fefffe" d="M 47.5,63.5 C 48.8333,64.1667 48.8333,64.1667 47.5,63.5 Z"/></g>
<g><path style="opacity:0.004" fill="#fefffe" d="M 80.5,64.5 C 81.8333,65.1667 81.8333,65.1667 80.5,64.5 Z"/></g>
<g><path style="opacity:0.004" fill="#fefffe" d="M 140.5,64.5 C 141.833,65.1667 141.833,65.1667 140.5,64.5 Z"/></g>
<g><path style="opacity:0.004" fill="#fefffe" d="M 203.5,67.5 C 204.833,68.1667 204.833,68.1667 203.5,67.5 Z"/></g>
<g><path style="opacity:0.004" fill="#fefffe" d="M 137.5,70.5 C 138.833,71.1667 138.833,71.1667 137.5,70.5 Z"/></g>
<g><path style="opacity:0.004" fill="#fefffe" d="M 137.5,74.5 C 138.833,75.1667 138.833,75.1667 137.5,74.5 Z"/></g>
<g><path style="opacity:0.004" fill="#fefffe" d="M 113.5,80.5 C 114.833,81.1667 114.833,81.1667 113.5,80.5 Z"/></g>
<g><path style="opacity:0.004" fill="#fefffe" d="M 95.5,82.5 C 96.8333,83.1667 96.8333,83.1667 95.5,82.5 Z"/></g>
<g><path style="opacity:0.004" fill="#fefffe" d="M 146.5,83.5 C 147.833,84.1667 147.833,84.1667 146.5,83.5 Z"/></g>
<g><path style="opacity:0.004" fill="#fefffe" d="M 65.5,86.5 C 66.8333,87.1667 66.8333,87.1667 65.5,86.5 Z"/></g>
<g><path style="opacity:0.004" fill="#fefffe" d="M 68.5,86.5 C 69.8333,87.1667 69.8333,87.1667 68.5,86.5 Z"/></g>
<g><path style="opacity:0.004" fill="#fefffe" d="M 110.5,86.5 C 111.833,87.1667 111.833,87.1667 110.5,86.5 Z"/></g>
<g><path style="opacity:0.004" fill="#fefffe" d="M 17.5,88.5 C 18.8333,89.1667 18.8333,89.1667 17.5,88.5 Z"/></g>
<g><path style="opacity:0.004" fill="#fefffe" d="M 116.5,89.5 C 117.833,90.1667 117.833,90.1667 116.5,89.5 Z"/></g>
<g><path style="opacity:1" fill="#034f9d" d="M 54.5,94.5 C 78.8333,94.5 103.167,94.5 127.5,94.5C 127.5,94.8333 127.5,95.1667 127.5,95.5C 126.167,95.5 124.833,95.5 123.5,95.5C 120.675,95.1616 118.508,96.1616 117,98.5C 115.152,96.0471 112.652,95.0471 109.5,95.5C 106.167,95.5 102.833,95.5 99.5,95.5C 96.8333,95.5 94.1667,95.5 91.5,95.5C 90.8333,95.5 90.1667,95.5 89.5,95.5C 80.5,95.5 71.5,95.5 62.5,95.5C 59.6146,95.8064 56.9479,95.4731 54.5,94.5 Z"/></g>
<g><path style="opacity:1" fill="#f87c1e" d="M 153.5,94.5 C 172.5,94.5 191.5,94.5 210.5,94.5C 208.393,95.4682 206.059,95.8016 203.5,95.5C 197.833,95.5 192.167,95.5 186.5,95.5C 183.635,95.0548 181.135,95.7215 179,97.5C 178.722,96.5842 178.222,95.9175 177.5,95.5C 176.833,95.5 176.167,95.5 175.5,95.5C 172.639,95.3416 169.972,96.0083 167.5,97.5C 165.531,95.4975 163.364,95.1642 161,96.5C 158.331,95.9839 155.831,95.3173 153.5,94.5 Z"/></g>
<g><path style="opacity:1" fill="#0e59a6" d="M 62.5,95.5 C 71.5,95.5 80.5,95.5 89.5,95.5C 89.5,96.8333 88.8333,97.5 87.5,97.5C 83.2759,98.7154 78.9426,99.5488 74.5,100C 73.8248,103.217 72.4914,106.05 70.5,108.5C 70.44,109.043 70.1067,109.376 69.5,109.5C 68.8281,108.051 68.1614,106.718 67.5,105.5C 64.9723,104.834 62.3056,104.168 59.5,103.5C 60.7476,101.31 62.4143,100.977 64.5,102.5C 65.5,102.167 66.1667,101.5 66.5,100.5C 64.9936,99.2528 63.4936,99.2528 62,100.5C 61.6905,99.2341 61.1905,98.0674 60.5,97C 61.4158,96.7216 62.0825,96.2216 62.5,95.5 Z"/></g>
<g><path style="opacity:1" fill="#0c5aa7" d="M 91.5,95.5 C 94.1667,95.5 96.8333,95.5 99.5,95.5C 99.9371,97.0744 100.937,98.2411 102.5,99C 101.953,99.9246 101.287,100.758 100.5,101.5C 97.5717,100.079 96.2384,101.079 96.5,104.5C 95.8333,104.5 95.1667,104.5 94.5,104.5C 93.6016,103.842 92.6016,103.176 91.5,102.5C 92.8333,101.833 94.1667,101.167 95.5,100.5C 93.7389,99.0834 92.4056,97.4167 91.5,95.5 Z"/></g>
<g><path style="opacity:1" fill="#0f5aa2" d="M 99.5,95.5 C 102.833,95.5 106.167,95.5 109.5,95.5C 106.778,97.9235 104.778,100.924 103.5,104.5C 102.167,104.5 100.833,104.5 99.5,104.5C 98.5,104.5 97.5,104.5 96.5,104.5C 96.2384,101.079 97.5717,100.079 100.5,101.5C 101.287,100.758 101.953,99.9246 102.5,99C 100.937,98.2411 99.9371,97.0744 99.5,95.5 Z"/></g>
<g><path style="opacity:1" fill="#0f5298" d="M 109.5,95.5 C 112.652,95.0471 115.152,96.0471 117,98.5C 118.508,96.1616 120.675,95.1616 123.5,95.5C 123.834,98.1678 125.167,100.168 127.5,101.5C 130.771,100.802 134.104,100.802 137.5,101.5C 136.713,103.104 135.38,103.771 133.5,103.5C 133.343,104.873 133.51,106.207 134,107.5C 135,106.5 136,105.5 137,104.5C 137.383,105.056 137.883,105.389 138.5,105.5C 136.066,118.62 134.066,118.62 132.5,105.5C 130.5,105.5 128.5,105.5 126.5,105.5C 126.5,110.833 126.5,116.167 126.5,121.5C 125.015,120.065 123.682,120.232 122.5,122C 119.167,122.667 115.833,122.667 112.5,122C 111.748,121.329 111.414,120.496 111.5,119.5C 121.562,123.955 125.729,120.621 124,109.5C 122.624,108.295 121.458,106.962 120.5,105.5C 117.023,104.677 113.356,104.177 109.5,104C 114.48,103.474 114.813,101.974 110.5,99.5C 108.679,100.728 107.679,102.394 107.5,104.5C 106.167,104.5 104.833,104.5 103.5,104.5C 104.778,100.924 106.778,97.9235 109.5,95.5 Z"/></g>
<g><path style="opacity:1" fill="#0e59a6" d="M 123.5,95.5 C 124.833,95.5 126.167,95.5 127.5,95.5C 127.611,96.1174 127.944,96.6174 128.5,97C 131.482,97.498 134.482,97.6646 137.5,97.5C 137.5,98.8333 137.5,100.167 137.5,101.5C 134.104,100.802 130.771,100.802 127.5,101.5C 125.167,100.168 123.834,98.1678 123.5,95.5 Z"/></g>
<g><path style="opacity:1" fill="#10569c" d="M 127.5,94.5 C 134.167,94.5 140.833,94.5 147.5,94.5C 147.5,95.5 147.5,96.5 147.5,97.5C 144.167,97.5 140.833,97.5 137.5,97.5C 134.482,97.6646 131.482,97.498 128.5,97C 127.944,96.6174 127.611,96.1174 127.5,95.5C 127.5,95.1667 127.5,94.8333 127.5,94.5 Z"/></g>
<g><path style="opacity:1" fill="#f1822d" d="M 177.5,95.5 C 178.222,95.9175 178.722,96.5842 179,97.5C 181.135,95.7215 183.635,95.0548 186.5,95.5C 186.787,98.4841 188.454,99.8174 191.5,99.5C 191.281,98.325 191.614,97.325 192.5,96.5C 193.642,97.8262 194.976,98.8262 196.5,99.5C 195.386,100.885 194.386,102.385 193.5,104C 192.049,103.737 190.716,103.904 189.5,104.5C 190.791,105.527 190.791,106.527 189.5,107.5C 187.777,109.253 186.277,111.253 185,113.5C 184.501,109.179 184.334,104.846 184.5,100.5C 183.5,100.5 182.5,100.5 181.5,100.5C 181.5,101.833 181.5,103.167 181.5,104.5C 179.718,103.28 177.718,102.614 175.5,102.5C 176.167,100.167 176.833,97.8333 177.5,95.5 Z"/></g>
<g><path style="opacity:1" fill="#f5842c" d="M 210.5,94.5 C 211.167,94.5 211.833,94.5 212.5,94.5C 212.5,95.1667 212.5,95.8333 212.5,96.5C 211.191,98.5706 210.525,101.071 210.5,104C 210,111.5 209.5,119 209,126.5C 208.546,124.229 207.879,121.896 207,119.5C 205.855,120.636 204.688,121.636 203.5,122.5C 202.1,121.9 201.1,120.9 200.5,119.5C 201.337,115.141 201.67,110.808 201.5,106.5C 201.043,105.702 200.376,105.369 199.5,105.5C 199.721,104.265 200.388,103.265 201.5,102.5C 209.341,100.653 209.341,98.8195 201.5,97C 202.416,96.7216 203.082,96.2216 203.5,95.5C 206.059,95.8016 208.393,95.4682 210.5,94.5 Z"/></g>
<g><path style="opacity:1" fill="#13518f" d="M 87.5,97.5 C 86.1346,99.5909 85.4679,101.924 85.5,104.5C 88.5,104.5 91.5,104.5 94.5,104.5C 95.1667,104.5 95.8333,104.5 96.5,104.5C 97.5,104.5 98.5,104.5 99.5,104.5C 99.5,104.833 99.5,105.167 99.5,105.5C 98.1667,105.5 96.8333,105.5 95.5,105.5C 95.5,106.833 95.5,108.167 95.5,109.5C 94.1779,109.33 93.0113,109.663 92,110.5C 91.5017,113.817 91.335,117.15 91.5,120.5C 90.3567,117.024 90.1901,113.358 91,109.5C 92.0113,108.663 93.1779,108.33 94.5,108.5C 94.5,107.5 94.5,106.5 94.5,105.5C 90.8333,105.5 87.1667,105.5 83.5,105.5C 83.6309,104.624 83.2975,103.957 82.5,103.5C 80.6183,102.907 78.7849,102.24 77,101.5C 76.4209,102.928 76.5876,104.262 77.5,105.5C 75.3812,105.468 74.0478,106.468 73.5,108.5C 72.5,109.833 71.5,109.833 70.5,108.5C 72.4914,106.05 73.8248,103.217 74.5,100C 78.9426,99.5488 83.2759,98.7154 87.5,97.5 Z"/></g>
<g><path style="opacity:1" fill="#f58329" d="M 153.5,94.5 C 155.831,95.3173 158.331,95.9839 161,96.5C 163.364,95.1642 165.531,95.4975 167.5,97.5C 169.972,96.0083 172.639,95.3416 175.5,95.5C 173.919,97.1417 173.253,99.1417 173.5,101.5C 167.086,101.243 166.42,102.409 171.5,105C 169.509,105.374 167.842,106.207 166.5,107.5C 166.167,107.5 165.833,107.5 165.5,107.5C 162.695,106.681 159.695,106.181 156.5,106C 157.554,104.612 157.72,103.112 157,101.5C 155.391,100.853 153.891,100.02 152.5,99C 152.871,97.3967 153.205,95.8967 153.5,94.5 Z"/></g>
<g><path style="opacity:1" fill="#f88426" d="M 186.5,95.5 C 192.167,95.5 197.833,95.5 203.5,95.5C 203.082,96.2216 202.416,96.7216 201.5,97C 209.341,98.8195 209.341,100.653 201.5,102.5C 200.388,103.265 199.721,104.265 199.5,105.5C 198.292,106.782 196.958,106.782 195.5,105.5C 196.593,103.651 197.926,101.984 199.5,100.5C 198.675,99.6143 197.675,99.281 196.5,99.5C 194.976,98.8262 193.642,97.8262 192.5,96.5C 191.614,97.325 191.281,98.325 191.5,99.5C 188.454,99.8174 186.787,98.4841 186.5,95.5 Z"/></g>
<g><path style="opacity:1" fill="#0d5ba4" d="M 89.5,95.5 C 90.1667,95.5 90.8333,95.5 91.5,95.5C 92.4056,97.4167 93.7389,99.0834 95.5,100.5C 94.1667,101.167 92.8333,101.833 91.5,102.5C 92.6016,103.176 93.6016,103.842 94.5,104.5C 91.5,104.5 88.5,104.5 85.5,104.5C 85.4679,101.924 86.1346,99.5909 87.5,97.5C 88.8333,97.5 89.5,96.8333 89.5,95.5 Z"/></g>
<g><path style="opacity:1" fill="#0e58a2" d="M 48.5,94.5 C 50.5,94.5 52.5,94.5 54.5,94.5C 56.9479,95.4731 59.6146,95.8064 62.5,95.5C 62.0825,96.2216 61.4158,96.7216 60.5,97C 61.1905,98.0674 61.6905,99.2341 62,100.5C 63.4936,99.2528 64.9936,99.2528 66.5,100.5C 66.1667,101.5 65.5,102.167 64.5,102.5C 62.4143,100.977 60.7476,101.31 59.5,103.5C 62.3056,104.168 64.9723,104.834 67.5,105.5C 64.1625,105.065 61.1625,105.732 58.5,107.5C 56.7657,109.683 55.7657,112.35 55.5,115.5C 56.1485,119.192 56.4819,122.859 56.5,126.5C 55.4231,127.705 54.0898,128.372 52.5,128.5C 51.5,128.5 50.5,128.5 49.5,128.5C 50.14,118.442 49.4733,108.775 47.5,99.5C 47.5,98.8333 47.5,98.1667 47.5,97.5C 48.1098,96.609 48.4431,95.609 48.5,94.5 Z"/></g>
<g><path style="opacity:1" fill="#df8035" d="M 150.5,93.5 C 171.34,93.1695 192.007,93.5028 212.5,94.5C 211.833,94.5 211.167,94.5 210.5,94.5C 191.5,94.5 172.5,94.5 153.5,94.5C 153.205,95.8967 152.871,97.3967 152.5,99C 153.891,100.02 155.391,100.853 157,101.5C 157.72,103.112 157.554,104.612 156.5,106C 159.695,106.181 162.695,106.681 165.5,107.5C 162.833,107.5 160.167,107.5 157.5,107.5C 157.5,112.167 157.5,116.833 157.5,121.5C 157.167,121.5 156.833,121.5 156.5,121.5C 156.5,116.833 156.5,112.167 156.5,107.5C 155.167,107.5 153.833,107.5 152.5,107.5C 152.5,112.167 152.5,116.833 152.5,121.5C 153.5,121.5 154.5,121.5 155.5,121.5C 155.25,122.922 154.417,123.922 153,124.5C 152.623,123.058 151.79,122.058 150.5,121.5C 150.5,112.167 150.5,102.833 150.5,93.5 Z M 153.5,101.5 C 154.995,101.415 155.995,102.081 156.5,103.5C 155.68,105.111 154.346,105.778 152.5,105.5C 152.433,104.041 152.766,102.708 153.5,101.5 Z M 156.5,121.5 C 156.167,121.5 155.833,121.5 155.5,121.5C 154.5,121.5 153.5,121.5 152.5,121.5C 152.5,116.833 152.5,112.167 152.5,107.5C 153.833,107.5 155.167,107.5 156.5,107.5C 156.5,112.167 156.5,116.833 156.5,121.5 Z"/></g>
<g><path style="opacity:1" fill="#0d59a7" d="M 137.5,97.5 C 140.833,97.5 144.167,97.5 147.5,97.5C 147.5,98.5 147.5,99.5 147.5,100.5C 145.896,101.287 145.229,102.62 145.5,104.5C 144.167,104.5 142.833,104.5 141.5,104.5C 141.762,103.022 141.429,101.689 140.5,100.5C 139.678,102.139 139.011,103.805 138.5,105.5C 137.883,105.389 137.383,105.056 137,104.5C 136,105.5 135,106.5 134,107.5C 133.51,106.207 133.343,104.873 133.5,103.5C 135.38,103.771 136.713,103.104 137.5,101.5C 137.5,100.167 137.5,98.8333 137.5,97.5 Z"/></g>
<g><path style="opacity:1" fill="#e78234" d="M 196.5,99.5 C 197.675,99.281 198.675,99.6143 199.5,100.5C 197.926,101.984 196.593,103.651 195.5,105.5C 196.958,106.782 198.292,106.782 199.5,105.5C 200.376,105.369 201.043,105.702 201.5,106.5C 201.67,110.808 201.337,115.141 200.5,119.5C 200.167,119.5 199.833,119.5 199.5,119.5C 202.219,110.229 198.886,106.229 189.5,107.5C 190.791,106.527 190.791,105.527 189.5,104.5C 190.716,103.904 192.049,103.737 193.5,104C 194.386,102.385 195.386,100.885 196.5,99.5 Z"/></g>
<g><path style="opacity:0.431" fill="#173f7a" d="M 33.5,102.5 C 33.5,103.167 33.8333,103.5 34.5,103.5C 33.1667,104.833 33.1667,106.167 34.5,107.5C 34.1667,107.5 33.8333,107.5 33.5,107.5C 32.2058,106.71 31.0391,105.71 30,104.5C 28.955,105.373 28.1217,106.373 27.5,107.5C 26.8333,107.5 26.5,107.833 26.5,108.5C 24.9153,109.002 24.4153,110.002 25,111.5C 25.9862,112.171 27.1529,112.171 28.5,111.5C 29.562,113.234 29.562,114.901 28.5,116.5C 27.8333,116.833 27.1667,117.167 26.5,117.5C 25.8333,117.5 25.5,117.167 25.5,116.5C 25.5,115.833 25.1667,115.5 24.5,115.5C 24.1667,114.833 23.8333,114.167 23.5,113.5C 22.1963,111.062 20.5296,108.895 18.5,107C 19.1007,105.395 20.1007,104.062 21.5,103C 18.8179,100.67 19.1512,100.17 22.5,101.5C 23.8333,100.5 25.1667,99.5 26.5,98.5C 27.9569,101.937 30.2903,103.27 33.5,102.5 Z M 24.5,101.5 C 27.3915,104.513 26.5582,106.513 22,107.5C 21.5,107.167 21,106.833 20.5,106.5C 22.0822,104.985 23.4155,103.319 24.5,101.5 Z"/></g>
<g><path style="opacity:1" fill="#153976" d="M 48.5,94.5 C 48.4431,95.609 48.1098,96.609 47.5,97.5C 43.7728,101.233 39.7728,104.566 35.5,107.5C 37.8926,103.598 40.8926,100.098 44.5,97C 43.5,96.3333 42.5,96.3333 41.5,97C 39.2968,99.3722 36.9635,101.539 34.5,103.5C 33.8333,103.5 33.5,103.167 33.5,102.5C 35.6281,99.8697 37.9614,97.3697 40.5,95C 43.146,94.5026 45.8127,94.3359 48.5,94.5 Z"/></g>
<g><path style="opacity:1" fill="#ed8230" d="M 175.5,95.5 C 176.167,95.5 176.833,95.5 177.5,95.5C 176.833,97.8333 176.167,100.167 175.5,102.5C 177.718,102.614 179.718,103.28 181.5,104.5C 181.313,107.214 180.146,107.881 178,106.5C 174.32,107.513 171.987,109.847 171,113.5C 170.668,110.457 169.168,108.457 166.5,107.5C 167.842,106.207 169.509,105.374 171.5,105C 166.42,102.409 167.086,101.243 173.5,101.5C 173.253,99.1417 173.919,97.1417 175.5,95.5 Z"/></g>
<g><path style="opacity:0.963" fill="#0e4b8d" d="M 120.5,105.5 C 114.532,104.459 111.199,106.792 110.5,112.5C 109.764,110.771 108.43,109.771 106.5,109.5C 107.028,108.279 107.695,107.113 108.5,106C 104.454,105.676 101.621,107.509 100,111.5C 99.5045,109.527 99.3379,107.527 99.5,105.5C 99.5,105.167 99.5,104.833 99.5,104.5C 100.833,104.5 102.167,104.5 103.5,104.5C 104.833,104.5 106.167,104.5 107.5,104.5C 107.679,102.394 108.679,100.728 110.5,99.5C 114.813,101.974 114.48,103.474 109.5,104C 113.356,104.177 117.023,104.677 120.5,105.5 Z"/></g>
<g><path style="opacity:1" fill="#09438c" d="M 47.5,99.5 C 49.4733,108.775 50.14,118.442 49.5,128.5C 50.5,128.5 51.5,128.5 52.5,128.5C 52.5,128.833 52.5,129.167 52.5,129.5C 50.8333,129.5 49.1667,129.5 47.5,129.5C 47.5,119.5 47.5,109.5 47.5,99.5 Z"/></g>
<g><path style="opacity:0.937" fill="#0b4081" d="M 67.5,105.5 C 68.1614,106.718 68.8281,108.051 69.5,109.5C 70.1067,109.376 70.44,109.043 70.5,108.5C 71.5,109.833 72.5,109.833 73.5,108.5C 72.1625,112.845 70.8292,117.178 69.5,121.5C 70.8333,121.5 72.1667,121.5 73.5,121.5C 71.3166,122.843 69.3166,122.51 67.5,120.5C 69.4045,115.033 67.4045,111.7 61.5,110.5C 62.9664,108.343 64.7997,108.01 67,109.5C 67.49,108.207 67.6567,106.873 67.5,105.5 Z"/></g>
<g><path style="opacity:1" fill="#16528f" d="M 147.5,100.5 C 147.5,106.833 147.5,113.167 147.5,119.5C 146.778,119.082 146.278,118.416 146,117.5C 145.79,119.058 145.29,120.391 144.5,121.5C 144.5,116.167 144.5,110.833 144.5,105.5C 142.5,105.5 140.5,105.5 138.5,105.5C 139.011,103.805 139.678,102.139 140.5,100.5C 141.429,101.689 141.762,103.022 141.5,104.5C 142.833,104.5 144.167,104.5 145.5,104.5C 145.229,102.62 145.896,101.287 147.5,100.5 Z"/></g>
<g><path style="opacity:1" fill="#0e427d" d="M 115.5,108.5 C 120.151,109.174 121.651,111.841 120,116.5C 116.648,119.443 114.481,118.609 113.5,114C 114.077,112.1 114.744,110.267 115.5,108.5 Z"/></g>
<g><path style="opacity:0.188" fill="#153e7c" d="M 27.5,107.5 C 29.4628,108.96 31.2962,110.627 33,112.5C 33.8333,111.667 34.6667,110.833 35.5,110C 34.244,109.583 33.5774,108.75 33.5,107.5C 33.8333,107.5 34.1667,107.5 34.5,107.5C 34.8333,107.5 35.1667,107.5 35.5,107.5C 36.9541,110.123 38.9541,112.289 41.5,114C 38.7735,115.966 38.4402,117.966 40.5,120C 39.2513,121.824 38.0847,121.657 37,119.5C 35.9805,120.687 34.8139,121.687 33.5,122.5C 31.7872,120.461 30.1205,118.461 28.5,116.5C 32.4041,114.909 32.4041,113.242 28.5,111.5C 27.8333,110.5 27.1667,109.5 26.5,108.5C 27.1667,108.5 27.5,108.167 27.5,107.5 Z M 34.5,113.5 C 35.9778,113.238 37.3112,113.571 38.5,114.5C 33.4714,121.426 32.1381,121.093 34.5,113.5 Z"/></g>
<g><path style="opacity:0.957" fill="#0c4a8f" d="M 83.5,105.5 C 83.5,106.5 83.5,107.5 83.5,108.5C 84.8221,108.33 85.9887,108.663 87,109.5C 87.4988,113.486 87.6655,117.486 87.5,121.5C 88.8333,121.5 90.1667,121.5 91.5,121.5C 90.4324,122.434 89.099,122.768 87.5,122.5C 85.7033,122.065 83.7033,122.065 81.5,122.5C 80.8333,122.5 80.5,122.167 80.5,121.5C 81.8333,121.5 83.1667,121.5 84.5,121.5C 83.111,116.832 81.611,112.165 80,107.5C 79.5831,106.244 78.7498,105.577 77.5,105.5C 76.5876,104.262 76.4209,102.928 77,101.5C 78.7849,102.24 80.6183,102.907 82.5,103.5C 83.2975,103.957 83.6309,104.624 83.5,105.5 Z"/></g>
<g><path style="opacity:1" fill="#1e4f85" d="M 48.5,94.5 C 81.6625,93.5017 114.996,93.1684 148.5,93.5C 148.828,105.012 148.495,116.346 147.5,127.5C 147.5,124.833 147.5,122.167 147.5,119.5C 147.5,113.167 147.5,106.833 147.5,100.5C 147.5,99.5 147.5,98.5 147.5,97.5C 147.5,96.5 147.5,95.5 147.5,94.5C 140.833,94.5 134.167,94.5 127.5,94.5C 103.167,94.5 78.8333,94.5 54.5,94.5C 52.5,94.5 50.5,94.5 48.5,94.5 Z"/></g>
<g><path style="opacity:0.992" fill="#0b488a" d="M 106.5,109.5 C 108.43,109.771 109.764,110.771 110.5,112.5C 110.298,114.95 110.631,117.283 111.5,119.5C 109.952,119.821 109.285,120.821 109.5,122.5C 103.78,121.736 103.113,123.07 107.5,126.5C 107,126.833 106.5,127.167 106,127.5C 104.989,126.944 104.156,126.278 103.5,125.5C 102.5,125.5 101.5,125.5 100.5,125.5C 100.5,124.5 100.5,123.5 100.5,122.5C 98.5853,122.784 96.9187,122.451 95.5,121.5C 96.8333,121.5 98.1667,121.5 99.5,121.5C 98.9063,113.898 100.24,113.565 103.5,120.5C 105.167,121.833 106.833,121.833 108.5,120.5C 107.079,117.991 105.412,115.657 103.5,113.5C 104.035,111.739 105.035,110.406 106.5,109.5 Z"/></g>
<g><path style="opacity:1" fill="#ed7d2a" d="M 176.5,110.5 C 178.167,110.5 179.833,110.5 181.5,110.5C 181.663,112.857 181.497,115.19 181,117.5C 177.295,119.355 175.129,118.189 174.5,114C 175.305,112.887 175.972,111.721 176.5,110.5 Z"/></g>
<g><path style="opacity:0.227" fill="#1e3565" d="M 76.5,110.5 C 77.9313,111.78 78.5979,113.447 78.5,115.5C 77.5,115.5 76.5,115.5 75.5,115.5C 75.366,113.708 75.6993,112.042 76.5,110.5 Z"/></g>
<g><path style="opacity:1" fill="#e28237" d="M 191.5,110.5 C 196.068,110.083 197.568,112.083 196,116.5C 192.828,119.388 190.661,118.722 189.5,114.5C 189.752,112.927 190.418,111.594 191.5,110.5 Z"/></g>
<g><path style="opacity:0.004" fill="#fefffe" d="M 11.5,115.5 C 12.8333,116.167 12.8333,116.167 11.5,115.5 Z"/></g>
<g><path style="opacity:0.004" fill="#fefffe" d="M 218.5,115.5 C 219.833,116.167 219.833,116.167 218.5,115.5 Z"/></g>
<g><path style="opacity:1" fill="#f78124" d="M 212.5,96.5 C 212.5,107.167 212.5,117.833 212.5,128.5C 210.5,128.5 208.5,128.5 206.5,128.5C 206.231,125.985 205.231,123.985 203.5,122.5C 204.688,121.636 205.855,120.636 207,119.5C 207.879,121.896 208.546,124.229 209,126.5C 209.5,119 210,111.5 210.5,104C 210.525,101.071 211.191,98.5706 212.5,96.5 Z"/></g>
<g><path style="opacity:1" fill="#e48339" d="M 199.5,119.5 C 199.218,120.778 198.551,121.778 197.5,122.5C 193.543,122.992 189.877,122.325 186.5,120.5C 183.033,121.998 179.366,122.998 175.5,123.5C 176.243,124.182 176.909,124.849 177.5,125.5C 175.143,125.663 172.81,125.497 170.5,125C 169.33,123.245 167.663,122.245 165.5,122C 164.87,118.871 164.204,115.704 163.5,112.5C 162.833,115.642 162.166,118.642 161.5,121.5C 161.335,118.15 161.502,114.817 162,111.5C 163.356,110.62 164.856,110.286 166.5,110.5C 166.5,114.167 166.5,117.833 166.5,121.5C 167.833,121.5 169.167,121.5 170.5,121.5C 170.338,119.473 170.505,117.473 171,115.5C 171.346,117.848 172.513,119.681 174.5,121C 177.817,121.498 181.15,121.665 184.5,121.5C 184.338,119.473 184.505,117.473 185,115.5C 188.399,121.824 193.232,123.157 199.5,119.5 Z"/></g>
<g><path style="opacity:1" fill="#0d5197" d="M 80.5,121.5 C 80.5,122.167 80.8333,122.5 81.5,122.5C 81.5,123.5 81.5,124.5 81.5,125.5C 79.2495,125.819 77.2495,125.319 75.5,124C 77.9011,123.195 77.7344,122.362 75,121.5C 72.7559,122.954 70.4226,124.288 68,125.5C 64.7655,123.815 61.2655,122.815 57.5,122.5C 57.5,122.167 57.5,121.833 57.5,121.5C 60.9023,121.658 64.2356,121.324 67.5,120.5C 69.3166,122.51 71.3166,122.843 73.5,121.5C 73.5,120.5 73.5,119.5 73.5,118.5C 75.5273,118.338 77.5273,118.505 79.5,119C 80.2524,119.671 80.5858,120.504 80.5,121.5 Z"/></g>
<g><path style="opacity:1" fill="#f78026" d="M 197.5,122.5 C 197.545,127.947 196.545,128.447 194.5,124C 191.446,123.179 188.446,123.345 185.5,124.5C 186.689,125.429 188.022,125.762 189.5,125.5C 189.5,126.5 189.5,127.5 189.5,128.5C 186.833,128.5 184.167,128.5 181.5,128.5C 181.48,126.857 182.147,125.524 183.5,124.5C 181.194,123.229 179.194,123.562 177.5,125.5C 176.909,124.849 176.243,124.182 175.5,123.5C 179.366,122.998 183.033,121.998 186.5,120.5C 189.877,122.325 193.543,122.992 197.5,122.5 Z"/></g>
<g><path style="opacity:1" fill="#0e5aa5" d="M 81.5,122.5 C 83.7033,122.065 85.7033,122.065 87.5,122.5C 88.044,124.716 89.044,126.716 90.5,128.5C 80.5,128.5 70.5,128.5 60.5,128.5C 60.3167,126.012 59.3167,124.012 57.5,122.5C 61.2655,122.815 64.7655,123.815 68,125.5C 70.4226,124.288 72.7559,122.954 75,121.5C 77.7344,122.362 77.9011,123.195 75.5,124C 77.2495,125.319 79.2495,125.819 81.5,125.5C 81.5,124.5 81.5,123.5 81.5,122.5 Z"/></g>
<g><path style="opacity:0.484" fill="#193f70" d="M 23.5,113.5 C 23.8333,114.167 24.1667,114.833 24.5,115.5C 20.7653,117.725 17.432,120.558 14.5,124C 15.9437,124.781 17.277,124.614 18.5,123.5C 20.5211,120.812 22.8544,118.479 25.5,116.5C 25.5,117.167 25.8333,117.5 26.5,117.5C 24.0381,120.464 21.3714,123.297 18.5,126C 16.0982,126.814 13.7649,126.647 11.5,125.5C 13.524,123.31 15.3573,120.977 17,118.5C 18.7772,116.21 20.9438,114.543 23.5,113.5 Z"/></g>
<g><path style="opacity:1" fill="#0d58a3" d="M 111.5,119.5 C 111.414,120.496 111.748,121.329 112.5,122C 115.833,122.667 119.167,122.667 122.5,122C 123.682,120.232 125.015,120.065 126.5,121.5C 127.5,121.5 128.5,121.5 129.5,121.5C 130.552,123.256 132.219,123.923 134.5,123.5C 134.657,124.873 134.49,126.207 134,127.5C 133,124.833 132,124.833 131,127.5C 129.893,126.288 129.393,126.621 129.5,128.5C 120.833,128.5 112.167,128.5 103.5,128.5C 103.5,127.5 103.5,126.5 103.5,125.5C 104.156,126.278 104.989,126.944 106,127.5C 106.5,127.167 107,126.833 107.5,126.5C 103.113,123.07 103.78,121.736 109.5,122.5C 109.285,120.821 109.952,119.821 111.5,119.5 Z"/></g>
<g><path style="opacity:1" fill="#10539c" d="M 144.5,121.5 C 145.29,120.391 145.79,119.058 146,117.5C 146.278,118.416 146.778,119.082 147.5,119.5C 147.5,122.167 147.5,124.833 147.5,127.5C 147.5,127.833 147.5,128.167 147.5,128.5C 141.5,128.5 135.5,128.5 129.5,128.5C 129.393,126.621 129.893,126.288 131,127.5C 132,124.833 133,124.833 134,127.5C 134.49,126.207 134.657,124.873 134.5,123.5C 132.219,123.923 130.552,123.256 129.5,121.5C 128.796,108.642 130.129,108.309 133.5,120.5C 134.689,121.429 136.022,121.762 137.5,121.5C 139.736,109.738 140.736,109.738 140.5,121.5C 141.833,121.5 143.167,121.5 144.5,121.5 Z"/></g>
<g><path style="opacity:1" fill="#f58329" d="M 177.5,125.5 C 179.194,123.562 181.194,123.229 183.5,124.5C 182.147,125.524 181.48,126.857 181.5,128.5C 171.167,128.5 160.833,128.5 150.5,128.5C 150.5,126.167 150.5,123.833 150.5,121.5C 151.79,122.058 152.623,123.058 153,124.5C 154.417,123.922 155.25,122.922 155.5,121.5C 155.833,121.5 156.167,121.5 156.5,121.5C 156.833,121.5 157.167,121.5 157.5,121.5C 158.833,121.5 160.167,121.5 161.5,121.5C 162.166,118.642 162.833,115.642 163.5,112.5C 164.204,115.704 164.87,118.871 165.5,122C 167.663,122.245 169.33,123.245 170.5,125C 172.81,125.497 175.143,125.663 177.5,125.5 Z"/></g>
<g><path style="opacity:1" fill="#f58329" d="M 199.5,119.5 C 199.833,119.5 200.167,119.5 200.5,119.5C 201.1,120.9 202.1,121.9 203.5,122.5C 205.231,123.985 206.231,125.985 206.5,128.5C 200.833,128.5 195.167,128.5 189.5,128.5C 189.5,127.5 189.5,126.5 189.5,125.5C 188.022,125.762 186.689,125.429 185.5,124.5C 188.446,123.345 191.446,123.179 194.5,124C 196.545,128.447 197.545,127.947 197.5,122.5C 198.551,121.778 199.218,120.778 199.5,119.5 Z"/></g>
<g><path style="opacity:1" fill="#0d55a1" d="M 95.5,109.5 C 95.5,113.5 95.5,117.5 95.5,121.5C 96.9187,122.451 98.5853,122.784 100.5,122.5C 100.5,123.5 100.5,124.5 100.5,125.5C 101.5,125.5 102.5,125.5 103.5,125.5C 103.5,126.5 103.5,127.5 103.5,128.5C 99.1667,128.5 94.8333,128.5 90.5,128.5C 89.044,126.716 88.044,124.716 87.5,122.5C 89.099,122.768 90.4324,122.434 91.5,121.5C 91.5,121.167 91.5,120.833 91.5,120.5C 91.335,117.15 91.5017,113.817 92,110.5C 93.0113,109.663 94.1779,109.33 95.5,109.5 Z"/></g>
<g><path style="opacity:1" fill="#155598" d="M 58.5,107.5 C 57.5269,109.068 57.3603,110.735 58,112.5C 60.3333,114.006 62.5,115.673 64.5,117.5C 62.2573,118.474 59.924,118.808 57.5,118.5C 57.5,119.5 57.5,120.5 57.5,121.5C 57.5,121.833 57.5,122.167 57.5,122.5C 59.3167,124.012 60.3167,126.012 60.5,128.5C 70.5,128.5 80.5,128.5 90.5,128.5C 94.8333,128.5 99.1667,128.5 103.5,128.5C 112.167,128.5 120.833,128.5 129.5,128.5C 135.5,128.5 141.5,128.5 147.5,128.5C 116.004,129.498 84.3377,129.832 52.5,129.5C 52.5,129.167 52.5,128.833 52.5,128.5C 54.0898,128.372 55.4231,127.705 56.5,126.5C 56.4819,122.859 56.1485,119.192 55.5,115.5C 55.7657,112.35 56.7657,109.683 58.5,107.5 Z"/></g>
<g><path style="opacity:1" fill="#e78233" d="M 212.5,94.5 C 213.495,105.988 213.828,117.655 213.5,129.5C 192.327,129.831 171.327,129.497 150.5,128.5C 160.833,128.5 171.167,128.5 181.5,128.5C 184.167,128.5 186.833,128.5 189.5,128.5C 195.167,128.5 200.833,128.5 206.5,128.5C 208.5,128.5 210.5,128.5 212.5,128.5C 212.5,117.833 212.5,107.167 212.5,96.5C 212.5,95.8333 212.5,95.1667 212.5,94.5 Z"/></g>
<g><path style="opacity:1" fill="#3a577e" d="M 148.5,93.5 C 148.833,93.5 149.167,93.5 149.5,93.5C 149.5,105.833 149.5,118.167 149.5,130.5C 115.329,130.832 81.3292,130.498 47.5,129.5C 49.1667,129.5 50.8333,129.5 52.5,129.5C 84.3377,129.832 116.004,129.498 147.5,128.5C 147.5,128.167 147.5,127.833 147.5,127.5C 148.495,116.346 148.828,105.012 148.5,93.5 Z"/></g>
<g><path style="opacity:1" fill="#d38c53" d="M 150.5,93.5 C 150.5,102.833 150.5,112.167 150.5,121.5C 150.5,123.833 150.5,126.167 150.5,128.5C 171.327,129.497 192.327,129.831 213.5,129.5C 192.34,130.497 171.007,130.831 149.5,130.5C 149.5,118.167 149.5,105.833 149.5,93.5C 149.833,92.1667 150.167,92.1667 150.5,93.5 Z"/></g>
<g><path style="opacity:0.004" fill="#fefffe" d="M 191.5,131.5 C 192.833,132.167 192.833,132.167 191.5,131.5 Z"/></g>
<g><path style="opacity:0.004" fill="#fefffe" d="M 38.5,133.5 C 39.8333,134.167 39.8333,134.167 38.5,133.5 Z"/></g>
<g><path style="opacity:0.004" fill="#fefffe" d="M 74.5,137.5 C 75.8333,138.167 75.8333,138.167 74.5,137.5 Z"/></g>
<g><path style="opacity:0.004" fill="#fefffe" d="M 140.5,140.5 C 141.833,141.167 141.833,141.167 140.5,140.5 Z"/></g>
<g><path style="opacity:0.004" fill="#fefffe" d="M 65.5,142.5 C 66.8333,143.167 66.8333,143.167 65.5,142.5 Z"/></g>
<g><path style="opacity:0.004" fill="#fefffe" d="M 170.5,143.5 C 171.833,144.167 171.833,144.167 170.5,143.5 Z"/></g>
<g><path style="opacity:0.004" fill="#fefffe" d="M 56.5,147.5 C 57.8333,148.167 57.8333,148.167 56.5,147.5 Z"/></g>
<g><path style="opacity:0.004" fill="#fefffe" d="M 68.5,147.5 C 69.8333,148.167 69.8333,148.167 68.5,147.5 Z"/></g>
<g><path style="opacity:0.004" fill="#fefffe" d="M 128.5,148.5 C 129.833,149.167 129.833,149.167 128.5,148.5 Z"/></g>
<g><path style="opacity:0.004" fill="#fefffe" d="M 167.5,148.5 C 168.833,149.167 168.833,149.167 167.5,148.5 Z"/></g>
<g><path style="opacity:0.004" fill="#fefffe" d="M 56.5,152.5 C 57.8333,153.167 57.8333,153.167 56.5,152.5 Z"/></g>
<g><path style="opacity:0.004" fill="#fefffe" d="M 44.5,156.5 C 45.8333,157.167 45.8333,157.167 44.5,156.5 Z"/></g>
<g><path style="opacity:0.004" fill="#fefffe" d="M 41.5,159.5 C 42.8333,160.167 42.8333,160.167 41.5,159.5 Z"/></g>
<g><path style="opacity:0.004" fill="#fefffe" d="M 167.5,159.5 C 168.833,160.167 168.833,160.167 167.5,159.5 Z"/></g>
<g><path style="opacity:0.004" fill="#fefffe" d="M 26.5,164.5 C 27.8333,165.167 27.8333,165.167 26.5,164.5 Z"/></g>
<g><path style="opacity:0.004" fill="#fefffe" d="M 191.5,165.5 C 192.833,166.167 192.833,166.167 191.5,165.5 Z"/></g>
<g><path style="opacity:0.004" fill="#fefffe" d="M 212.5,166.5 C 213.833,167.167 213.833,167.167 212.5,166.5 Z"/></g>
<g><path style="opacity:0.004" fill="#fefffe" d="M 206.5,171.5 C 207.833,172.167 207.833,172.167 206.5,171.5 Z"/></g>
<g><path style="opacity:0.004" fill="#fefffe" d="M 188.5,181.5 C 189.833,182.167 189.833,182.167 188.5,181.5 Z"/></g>
<g><path style="opacity:0.004" fill="#fefffe" d="M 74.5,186.5 C 75.8333,187.167 75.8333,187.167 74.5,186.5 Z"/></g>
<g><path style="opacity:0.004" fill="#fefffe" d="M 83.5,186.5 C 84.8333,187.167 84.8333,187.167 83.5,186.5 Z"/></g>
<g><path style="opacity:0.004" fill="#fefffe" d="M 86.5,187.5 C 87.8333,188.167 87.8333,188.167 86.5,187.5 Z"/></g>
<g><path style="opacity:0.004" fill="#fefffe" d="M 137.5,189.5 C 138.833,190.167 138.833,190.167 137.5,189.5 Z"/></g>
<g><path style="opacity:0.004" fill="#fefffe" d="M 170.5,189.5 C 171.833,190.167 171.833,190.167 170.5,189.5 Z"/></g>
<g><path style="opacity:0.004" fill="#fefffe" d="M 212.5,190.5 C 213.833,191.167 213.833,191.167 212.5,190.5 Z"/></g>
<g><path style="opacity:0.004" fill="#fefffe" d="M 50.5,191.5 C 51.8333,192.167 51.8333,192.167 50.5,191.5 Z"/></g>
<g><path style="opacity:0.004" fill="#fefffe" d="M 77.5,192.5 C 78.8333,193.167 78.8333,193.167 77.5,192.5 Z"/></g>
<g><path style="opacity:0.004" fill="#fefffe" d="M 113.5,198.5 C 114.833,199.167 114.833,199.167 113.5,198.5 Z"/></g>
<g><path style="opacity:0.004" fill="#fefffe" d="M 116.5,198.5 C 117.833,199.167 117.833,199.167 116.5,198.5 Z"/></g>
<g><path style="opacity:0.004" fill="#fefffe" d="M 104.5,199.5 C 105.833,200.167 105.833,200.167 104.5,199.5 Z"/></g>
<g><path style="opacity:0.004" fill="#fefffe" d="M 74.5,202.5 C 75.8333,203.167 75.8333,203.167 74.5,202.5 Z"/></g>
<g><path style="opacity:0.004" fill="#fefffe" d="M 173.5,202.5 C 174.833,203.167 174.833,203.167 173.5,202.5 Z"/></g>
<g><path style="opacity:0.004" fill="#fefffe" d="M 41.5,205.5 C 42.8333,206.167 42.8333,206.167 41.5,205.5 Z"/></g>
<g><path style="opacity:0.004" fill="#fefffe" d="M 197.5,207.5 C 198.833,208.167 198.833,208.167 197.5,207.5 Z"/></g>
<g><path style="opacity:0.004" fill="#fefffe" d="M 170.5,210.5 C 171.833,211.167 171.833,211.167 170.5,210.5 Z"/></g>
<g><path style="opacity:0.004" fill="#fefffe" d="M 83.5,211.5 C 84.8333,212.167 84.8333,212.167 83.5,211.5 Z"/></g>
<g><path style="opacity:0.004" fill="#fefffe" d="M 26.5,217.5 C 27.8333,218.167 27.8333,218.167 26.5,217.5 Z"/></g>
</svg>
